<?xml version="1.0" encoding="iso-8859-1"?>
<!-- Generator: Adobe Illustrator 19.0.0, SVG Export Plug-In . SVG Version: 6.00 Build 0)  -->
<svg version="1.1" id="Capa_1" xmlns="http://www.w3.org/2000/svg" xmlns:xlink="http://www.w3.org/1999/xlink" x="0px" y="0px"
	 viewBox="0 0 496 496" style="enable-background:new 0 0 496 496;" xml:space="preserve" fill="#38b70b">
<g>
	<g>
		<path d="M472,0H24C10.768,0,0,10.768,0,24v304c0,13.232,10.768,24,24,24h124.896l-48,144h64.864l16-48h132.464l16,48h64.864
			l-48-144H472c13.232,0,24-10.768,24-24V24C496,10.768,485.232,0,472,0z M154.232,480h-31.136l42.672-128h31.136L154.232,480z
			 M187.096,432l5.336-16h111.136l5.336,16H187.096z M197.768,400l16-48h68.464l16,48H197.768z M372.904,480h-31.136l-42.664-128
			h31.136L372.904,480z M480,288h-32v-8c0-13.232-10.768-24-24-24h-64c-13.232,0-24,10.768-24,24v8H64v16h416v24
			c0,4.416-3.592,8-8,8H24c-4.408,0-8-3.584-8-8v-24h32v-16H16V24c0-4.416,3.592-8,8-8h448c4.408,0,8,3.584,8,8V288z M432,280v8h-80
			v-8c0-4.416,3.592-8,8-8h64C428.408,272,432,275.584,432,280z"/>
	</g>
</g>
<g>
	<g>
		<polygon points="104,88 104,72 48,72 48,184 104,184 104,168 64,168 64,136 104,136 104,120 64,120 64,88 		"/>
	</g>
</g>
<g>
	<g>
		<rect x="136" y="104" width="64" height="16"/>
	</g>
</g>
<g>
	<g>
		<rect x="136" y="136" width="64" height="16"/>
	</g>
</g>
<g>
	<g>
		<path d="M296,104c-6.168,0-11.744,2.408-16,6.24c-4.256-3.84-9.832-6.24-16-6.24c-6.168,0-11.744,2.408-16,6.24
			c-4.256-3.84-9.832-6.24-16-6.24v16c4.408,0,8,3.584,8,8v8v24h16v-24v-8c0-4.416,3.592-8,8-8c4.408,0,8,3.584,8,8v32h16v-32
			c0-4.416,3.592-8,8-8c4.408,0,8,3.584,8,8v32h16v-32C320,114.768,309.232,104,296,104z"/>
	</g>
</g>
<g>
	<g>
		<path d="M368,120h8v-16h-8c-17.648,0-32,14.352-32,32s14.352,32,32,32h8v-16h-8c-8.824,0-16-7.176-16-16
			C352,127.176,359.176,120,368,120z"/>
	</g>
</g>
<g>
	<g>
		<path d="M438.4,91.2c6.008-4.504,9.6-11.68,9.6-19.2c0-13.232-10.768-24-24-24s-24,10.768-24,24h16c0-4.416,3.592-8,8-8
			c4.408,0,8,3.584,8,8c0,2.504-1.192,4.896-3.2,6.4L400,100v20h48v-16h-26.664L438.4,91.2z"/>
	</g>
</g>
<g>
</g>
<g>
</g>
<g>
</g>
<g>
</g>
<g>
</g>
<g>
</g>
<g>
</g>
<g>
</g>
<g>
</g>
<g>
</g>
<g>
</g>
<g>
</g>
<g>
</g>
<g>
</g>
<g>
</g>
</svg>
